<?xml version="1.0" standalone="no"?>
<!DOCTYPE svg PUBLIC "-//W3C//DTD SVG 20010904//EN"
 "http://www.w3.org/TR/2001/REC-SVG-20010904/DTD/svg10.dtd">
<svg version="1.0" xmlns="http://www.w3.org/2000/svg"
 width="20.000000pt" height="419.000000pt" viewBox="0 0 20.000000 419.000000"
 preserveAspectRatio="xMidYMid meet">

<g transform="translate(0.000000,419.000000) scale(0.100000,-0.100000)"
fill="#e0b144" stroke="none">
<path d="M29 4161 c-23 -23 -29 -38 -29 -72 0 -35 6 -47 35 -75 l35 -33 0
-846 0 -846 -35 -33 c-50 -48 -50 -104 0 -152 l35 -33 0 -931 0 -931 -35 -33
c-29 -28 -35 -40 -35 -75 0 -34 6 -49 29 -72 65 -64 171 -20 171 72 0 35 -6
47 -35 75 l-35 33 0 931 0 931 35 33 c50 48 50 104 0 152 l-35 33 0 846 0 846
35 33 c29 28 35 40 35 75 0 60 -41 101 -100 101 -33 0 -48 -6 -71 -29z"/>
</g>
</svg>
